<svg width="300" height="123" viewBox="0 0 300 123" fill="none" xmlns="http://www.w3.org/2000/svg">
<g clip-path="url(#clip0_115_16)">
<rect x="211" y="114" width="52" height="17" rx="3" fill="#333333" fill-opacity="0.03"/>
<rect x="271" y="114" width="52" height="17" rx="3" fill="#333333" fill-opacity="0.03"/>
<rect x="30" y="114" width="52" height="17" rx="3" fill="#333333" fill-opacity="0.03"/>
<rect x="-30" y="114" width="52" height="17" rx="3" fill="#333333" fill-opacity="0.03"/>
<rect x="151" y="114" width="52" height="17" rx="3" fill="#333333" fill-opacity="0.03"/>
<rect x="90" y="114" width="53" height="17" rx="3" fill="#333333" fill-opacity="0.03"/>
<rect x="239" y="92" width="52" height="17" rx="3" fill="#333333" fill-opacity="0.03"/>
<rect x="299" y="92" width="52" height="17" rx="3" fill="#333333" fill-opacity="0.03"/>
<rect x="58" y="92" width="52" height="17" rx="3" fill="#333333" fill-opacity="0.03"/>
<rect x="-2" y="92" width="52" height="17" rx="3" fill="#333333" fill-opacity="0.03"/>
<rect x="179" y="92" width="52" height="17" rx="3" fill="#333333" fill-opacity="0.03"/>
<rect x="118" y="92" width="53" height="17" rx="3" fill="#333333" fill-opacity="0.03"/>
<rect x="209" y="70" width="52" height="17" rx="3" fill="#333333" fill-opacity="0.03"/>
<rect x="269" y="70" width="52" height="17" rx="3" fill="#333333" fill-opacity="0.03"/>
<rect x="28" y="70" width="52" height="17" rx="3" fill="#333333" fill-opacity="0.03"/>
<rect x="-32" y="70" width="52" height="17" rx="3" fill="#333333" fill-opacity="0.03"/>
<rect x="149" y="70" width="52" height="17" rx="3" fill="#333333" fill-opacity="0.03"/>
<rect x="88" y="70" width="53" height="17" rx="3" fill="#333333" fill-opacity="0.03"/>
<rect x="239" y="48" width="52" height="17" rx="3" fill="#333333" fill-opacity="0.03"/>
<rect x="299" y="48" width="52" height="17" rx="3" fill="#333333" fill-opacity="0.03"/>
<rect x="58" y="48" width="52" height="17" rx="3" fill="#333333" fill-opacity="0.03"/>
<rect x="-2" y="48" width="52" height="17" rx="3" fill="#333333" fill-opacity="0.03"/>
<rect x="179" y="48" width="52" height="17" rx="3" fill="#333333" fill-opacity="0.03"/>
<rect x="118" y="48" width="53" height="17" rx="3" fill="#333333" fill-opacity="0.03"/>
<rect x="209" y="26" width="52" height="17" rx="3" fill="#333333" fill-opacity="0.03"/>
<rect x="269" y="26" width="52" height="17" rx="3" fill="#333333" fill-opacity="0.03"/>
<rect x="28" y="26" width="52" height="17" rx="3" fill="#333333" fill-opacity="0.03"/>
<rect x="-32" y="26" width="52" height="17" rx="3" fill="#333333" fill-opacity="0.03"/>
<rect x="149" y="26" width="52" height="17" rx="3" fill="#333333" fill-opacity="0.03"/>
<rect x="88" y="26" width="53" height="17" rx="3" fill="#333333" fill-opacity="0.03"/>
<rect x="237" y="4" width="52" height="17" rx="3" fill="#333333" fill-opacity="0.03"/>
<rect x="297" y="4" width="52" height="17" rx="3" fill="#333333" fill-opacity="0.03"/>
<rect x="56" y="4" width="52" height="17" rx="3" fill="#333333" fill-opacity="0.03"/>
<rect x="-4" y="4" width="52" height="17" rx="3" fill="#333333" fill-opacity="0.03"/>
<rect x="177" y="4" width="52" height="17" rx="3" fill="#333333" fill-opacity="0.03"/>
<rect x="116" y="4" width="53" height="17" rx="3" fill="#333333" fill-opacity="0.03"/>
</g>
<defs>
<clipPath id="clip0_115_16">
<rect width="300" height="123" rx="12" fill="white"/>
</clipPath>
</defs>
</svg>
