<svg width="145" height="22" viewBox="0 0 145 22" fill="none" xmlns="http://www.w3.org/2000/svg">
<path d="M107.903 19.6096H107.558V2.39036H107.903V19.6096Z" fill="#28292A"/>
<path d="M76.6155 21.9953H72.9316V0.00918114H76.6155V21.9953Z" fill="#28292A"/>
<path d="M60.0913 12.2906L69.8533 22H64.9026L57.9056 15.0408L52.4165 22H48.7321V0.0141583H52.4165V16.3341L65.8916 0.0141583H70.4042L60.0913 12.2906Z" fill="#28292A"/>
<path d="M22.1053 0.00463397H0V3.3025H9.21053V21.9906H12.8947V3.3025H22.1053V0.00463397Z" fill="#28292A"/>
<path d="M40.2582 0.00463397H29.2732C26.639 0.00463397 24.4837 2.14821 24.4837 4.76819V17.2271C24.4837 19.8471 26.639 21.9906 29.2732 21.9906H40.2582C42.8924 21.9906 45.0476 19.8471 45.0476 17.2271V4.76819C45.0476 2.14821 42.8924 0.00463397 40.2582 0.00463397ZM39.0681 3.75342C40.2838 3.75342 41.2785 4.74287 41.2785 5.952V16.0433C41.2785 17.2525 40.2838 18.2419 39.0681 18.2419H30.4635C29.2477 18.2419 28.253 17.2525 28.253 16.0433V5.952C28.253 4.74287 29.2477 3.75342 30.4635 3.75342H39.0681Z" fill="#28292A"/>
<path d="M96.0745 0H85.0893C82.4554 0 80.3003 2.14366 80.3003 4.76372V17.2225C80.3003 19.8425 82.4554 21.9862 85.0893 21.9862H96.0745C98.7084 21.9862 100.863 19.8425 100.863 17.2225V4.76372C100.863 2.14366 98.7084 0 96.0745 0ZM94.8839 3.74887C96.1003 3.74887 97.0951 4.73824 97.0951 5.94753V16.0387C97.0951 17.2479 96.1003 18.2373 94.8839 18.2373H86.2799C85.0643 18.2373 84.0695 17.2479 84.0695 16.0387V5.94753C84.0695 4.73824 85.0643 3.74887 86.2799 3.74887H94.8839Z" fill="#28292A"/>
<path d="M114.76 10.6865C114.76 10.588 114.747 10.4957 114.72 10.4097C114.694 10.3237 114.654 10.2489 114.602 10.1853C114.55 10.1218 114.481 10.0705 114.395 10.0316C114.311 9.99261 114.209 9.97322 114.091 9.97322C113.873 9.97322 113.694 10.0388 113.557 10.17C113.419 10.3012 113.334 10.4774 113.304 10.6987L114.76 10.6865ZM115.454 11.1291H113.284V11.1536C113.284 11.4489 113.377 11.6722 113.559 11.8239C113.743 11.9756 113.986 12.0513 114.288 12.0513C114.453 12.0513 114.603 12.0381 114.736 12.0115C114.87 11.9847 115.005 11.9429 115.14 11.8854L115.271 12.3465C115.144 12.3998 114.993 12.444 114.818 12.4786C114.644 12.5135 114.452 12.5309 114.242 12.5309C114.018 12.5309 113.807 12.5022 113.606 12.4448C113.405 12.3875 113.229 12.2973 113.078 12.1743C112.927 12.0513 112.808 11.8957 112.721 11.7071C112.633 11.5185 112.59 11.293 112.59 11.0308C112.59 10.8054 112.626 10.5994 112.698 10.4128C112.77 10.2264 112.873 10.0666 113.006 9.93323C113.139 9.80006 113.301 9.6976 113.491 9.62587C113.681 9.55422 113.892 9.51826 114.124 9.51826C114.325 9.51826 114.507 9.54898 114.671 9.61051C114.835 9.67186 114.974 9.75913 115.091 9.87179C115.206 9.98446 115.296 10.1218 115.359 10.2837C115.423 10.4456 115.454 10.6249 115.454 10.8217V11.1291Z" fill="#28292A"/>
<path d="M116.949 12.4694H116.274V9.56735H116.805L116.896 9.95486C117.049 9.81551 117.21 9.7079 117.378 9.63196C117.546 9.55619 117.738 9.51827 117.952 9.51827C118.279 9.51827 118.533 9.60227 118.713 9.77029C118.891 9.93838 118.981 10.1782 118.981 10.4897V12.4694H118.306V10.5696C118.306 10.4016 118.26 10.2683 118.168 10.17C118.077 10.0716 117.939 10.0224 117.755 10.0224C117.615 10.0224 117.476 10.0541 117.339 10.1176C117.201 10.1812 117.072 10.2724 116.949 10.3913V12.4694Z" fill="#28292A"/>
<path d="M121.806 10.545C121.806 10.3483 121.752 10.2018 121.642 10.1055C121.534 10.0092 121.389 9.96087 121.21 9.96087C121.026 9.96087 120.881 10.0081 120.774 10.1024C120.667 10.1966 120.613 10.3381 120.613 10.5265C120.613 10.7233 120.668 10.8688 120.777 10.9631C120.887 11.0574 121.031 11.1045 121.21 11.1045C121.394 11.1045 121.539 11.0574 121.646 10.9631C121.753 10.8688 121.806 10.7294 121.806 10.545ZM120.679 12.5002C120.478 12.5903 120.378 12.7256 120.378 12.906C120.378 13.0699 120.448 13.195 120.591 13.281C120.732 13.367 120.955 13.4101 121.256 13.4101C121.427 13.4101 121.571 13.3948 121.689 13.364C121.806 13.3333 121.904 13.2933 121.981 13.2442C122.056 13.195 122.113 13.1396 122.147 13.0782C122.182 13.0167 122.2 12.9531 122.2 12.8875C122.2 12.7317 122.145 12.6282 122.032 12.5771C121.921 12.5258 121.774 12.5002 121.591 12.5002H120.679ZM119.932 10.5388C119.932 10.379 119.964 10.2355 120.026 10.1085C120.09 9.98146 120.178 9.87377 120.292 9.78565C120.406 9.69761 120.542 9.63093 120.699 9.5858C120.856 9.54083 121.026 9.51827 121.21 9.51827C121.346 9.51827 121.483 9.53466 121.623 9.56735H122.954V10.0039H122.724L122.239 9.94242C122.314 10.0203 122.372 10.1105 122.416 10.213C122.46 10.3155 122.482 10.422 122.482 10.5327C122.482 10.6926 122.451 10.8351 122.39 10.9601C122.329 11.0851 122.243 11.1916 122.131 11.2796C122.019 11.368 121.886 11.4345 121.728 11.4796C121.571 11.5248 121.398 11.5471 121.21 11.5471C121.149 11.5471 121.091 11.5451 121.036 11.541C120.982 11.537 120.928 11.5308 120.875 11.5226C120.793 11.5555 120.734 11.5944 120.699 11.6394C120.664 11.6846 120.646 11.7337 120.646 11.7869C120.646 11.8691 120.677 11.9264 120.738 11.9591C120.799 11.9919 120.887 12.0082 121.001 12.0082H121.78C122.121 12.0082 122.387 12.0812 122.577 12.2265C122.767 12.3722 122.862 12.5801 122.862 12.8507C122.862 13.0105 122.823 13.155 122.748 13.2841C122.671 13.4132 122.561 13.5239 122.42 13.6161C122.277 13.7084 122.106 13.7791 121.905 13.8282C121.704 13.8774 121.478 13.9021 121.23 13.9021C120.771 13.9021 120.408 13.8262 120.141 13.6746C119.875 13.5228 119.742 13.2995 119.742 13.0044C119.742 12.8608 119.792 12.7378 119.893 12.6354C119.993 12.533 120.126 12.4531 120.292 12.3957C120.214 12.3465 120.15 12.2881 120.102 12.2205C120.054 12.1528 120.03 12.0636 120.03 11.953C120.03 11.8219 120.071 11.7101 120.154 11.6179C120.238 11.5257 120.347 11.4529 120.482 11.3997C120.325 11.33 120.194 11.2244 120.089 11.083C119.984 10.9416 119.932 10.7603 119.932 10.5388Z" fill="#28292A"/>
<path d="M125.661 10.6865C125.661 10.588 125.648 10.4957 125.622 10.4097C125.595 10.3237 125.557 10.2489 125.504 10.1853C125.451 10.1218 125.382 10.0705 125.297 10.0316C125.212 9.99261 125.111 9.97322 124.992 9.97322C124.774 9.97322 124.596 10.0388 124.458 10.17C124.32 10.3012 124.237 10.4774 124.206 10.6987L125.661 10.6865ZM126.356 11.1291H124.186V11.1536C124.186 11.4489 124.278 11.6722 124.462 11.8239C124.645 11.9756 124.888 12.0513 125.189 12.0513C125.356 12.0513 125.505 12.0381 125.639 12.0115C125.771 11.9847 125.906 11.9429 126.041 11.8854L126.173 12.3465C126.046 12.3998 125.895 12.444 125.721 12.4786C125.545 12.5135 125.353 12.5309 125.143 12.5309C124.921 12.5309 124.709 12.5022 124.508 12.4448C124.307 12.3875 124.131 12.2973 123.98 12.1743C123.829 12.0513 123.709 11.8957 123.622 11.7071C123.535 11.5185 123.491 11.293 123.491 11.0308C123.491 10.8054 123.527 10.5994 123.599 10.4128C123.672 10.2264 123.774 10.0666 123.908 9.93323C124.041 9.80006 124.203 9.6976 124.393 9.62587C124.583 9.55422 124.794 9.51826 125.025 9.51826C125.226 9.51826 125.409 9.54898 125.573 9.61051C125.737 9.67186 125.877 9.75913 125.992 9.87179C126.108 9.98446 126.198 10.1218 126.261 10.2837C126.324 10.4456 126.356 10.6249 126.356 10.8217V11.1291Z" fill="#28292A"/>
<path d="M127.851 12.4694H127.175V9.56735H127.707L127.798 9.95486C127.951 9.81551 128.112 9.7079 128.28 9.63196C128.448 9.55619 128.639 9.51827 128.853 9.51827C129.182 9.51827 129.435 9.60227 129.614 9.77029C129.793 9.93838 129.882 10.1782 129.882 10.4897V12.4694H129.208V10.5696C129.208 10.4016 129.162 10.2683 129.07 10.17C128.978 10.0716 128.84 10.0224 128.657 10.0224C128.517 10.0224 128.379 10.0541 128.241 10.1176C128.103 10.1812 127.973 10.2724 127.851 10.3913V12.4694Z" fill="#28292A"/>
<path d="M131.594 12.4694H130.918V8.09797H131.594V9.89934C131.734 9.79285 131.887 9.70258 132.056 9.62887C132.224 9.55517 132.411 9.51827 132.616 9.51827C132.791 9.51827 132.944 9.54281 133.075 9.59198C133.206 9.64123 133.314 9.70885 133.4 9.79491C133.485 9.88089 133.548 9.98352 133.59 10.1024C133.632 10.2213 133.652 10.3503 133.652 10.4897V12.4694H132.977V10.6311C132.977 10.4138 132.929 10.2581 132.833 10.1638C132.736 10.0696 132.596 10.0224 132.414 10.0224C132.277 10.0224 132.139 10.0541 131.997 10.1176C131.855 10.1812 131.721 10.2683 131.594 10.379V12.4694Z" fill="#28292A"/>
<path d="M136.431 11.1536L136.019 11.1599C135.708 11.168 135.49 11.2193 135.363 11.3136C135.236 11.4078 135.173 11.5185 135.173 11.6455C135.173 11.7277 135.187 11.7952 135.216 11.8485C135.244 11.9018 135.282 11.9447 135.33 11.9775C135.378 12.0105 135.434 12.034 135.498 12.0482C135.561 12.0626 135.626 12.0698 135.691 12.0698C135.827 12.0698 135.96 12.0381 136.094 11.9745C136.227 11.911 136.34 11.8198 136.431 11.7009V11.1536ZM134.715 9.82563C134.915 9.72326 135.109 9.64638 135.294 9.59506C135.48 9.54392 135.687 9.51826 135.914 9.51826C136.089 9.51826 136.249 9.53663 136.395 9.57352C136.542 9.61051 136.668 9.66989 136.772 9.75192C136.877 9.83395 136.959 9.94353 137.018 10.0809C137.078 10.2181 137.107 10.3851 137.107 10.5819V12.4694H136.562L136.491 12.1558H136.471C136.349 12.2871 136.206 12.3825 136.045 12.4417C135.883 12.5012 135.704 12.5309 135.507 12.5309C135.197 12.5309 134.947 12.4531 134.757 12.2973C134.567 12.1415 134.471 11.9345 134.471 11.6763C134.471 11.5165 134.507 11.3782 134.576 11.2613C134.646 11.1444 134.745 11.0471 134.872 10.9693C134.998 10.8915 135.148 10.833 135.324 10.794C135.499 10.7552 135.691 10.7355 135.901 10.7355H136.425V10.5142C136.425 10.3298 136.373 10.2018 136.267 10.13C136.163 10.0583 136.019 10.0224 135.835 10.0224C135.721 10.0224 135.594 10.0398 135.451 10.0746C135.31 10.1095 135.147 10.174 134.963 10.2683L134.715 9.82563Z" fill="#28292A"/>
<path d="M138.077 12.4694V9.56735H138.588L138.687 10.1269C138.761 9.95486 138.881 9.81027 139.047 9.6934C139.214 9.57662 139.415 9.51827 139.65 9.51827C139.755 9.51827 139.846 9.5265 139.922 9.54281C139.999 9.5592 140.068 9.58176 140.129 9.61051L140.004 10.1392C139.952 10.1146 139.892 10.0941 139.824 10.0776C139.756 10.0613 139.679 10.0531 139.592 10.0531C139.351 10.0531 139.15 10.13 138.988 10.2837C138.826 10.4374 138.746 10.6702 138.746 10.9816V12.4694H138.077Z" fill="#28292A"/>
<path d="M140.765 12.4694V9.56735H141.44V12.4694H140.765ZM141.106 8.84802C140.987 8.84802 140.893 8.81421 140.824 8.74668C140.754 8.67898 140.719 8.59394 140.719 8.4914C140.719 8.38903 140.754 8.30391 140.824 8.23621C140.893 8.16859 140.987 8.13487 141.106 8.13487C141.219 8.13487 141.312 8.16859 141.384 8.23621C141.457 8.30391 141.492 8.38903 141.492 8.4914C141.492 8.59806 141.457 8.68421 141.384 8.74968C141.312 8.81524 141.219 8.84802 141.106 8.84802Z" fill="#28292A"/>
<path d="M144.324 11.1536L143.911 11.1599C143.601 11.168 143.382 11.2193 143.256 11.3136C143.129 11.4078 143.066 11.5185 143.066 11.6455C143.066 11.7277 143.08 11.7952 143.108 11.8485C143.136 11.9018 143.174 11.9447 143.223 11.9775C143.271 12.0105 143.327 12.034 143.39 12.0482C143.453 12.0626 143.518 12.0698 143.583 12.0698C143.719 12.0698 143.853 12.0381 143.986 11.9745C144.12 11.911 144.232 11.8198 144.324 11.7009V11.1536ZM142.607 9.82563C142.808 9.72326 143.001 9.64638 143.187 9.59506C143.373 9.54392 143.579 9.51826 143.807 9.51826C143.981 9.51826 144.142 9.53663 144.288 9.57352C144.435 9.61051 144.56 9.66989 144.665 9.75192C144.77 9.83395 144.852 9.94353 144.911 10.0809C144.97 10.2181 145 10.3851 145 10.5819V12.4694H144.456L144.383 12.1558H144.363C144.242 12.2871 144.099 12.3825 143.937 12.4417C143.776 12.5012 143.596 12.5309 143.4 12.5309C143.09 12.5309 142.84 12.4531 142.649 12.2973C142.459 12.1415 142.364 11.9345 142.364 11.6763C142.364 11.5165 142.399 11.3782 142.469 11.2613C142.539 11.1444 142.637 11.0471 142.764 10.9693C142.891 10.8915 143.042 10.833 143.217 10.794C143.391 10.7552 143.583 10.7355 143.793 10.7355H144.318V10.5142C144.318 10.3298 144.266 10.2018 144.161 10.13C144.055 10.0583 143.911 10.0224 143.727 10.0224C143.614 10.0224 143.486 10.0398 143.344 10.0746C143.202 10.1095 143.04 10.174 142.856 10.2683L142.607 9.82563Z" fill="#28292A"/>
</svg>
