<svg width="30" height="31" viewBox="0 0 30 31" fill="none" xmlns="http://www.w3.org/2000/svg">
<path d="M5.32236 6.38018C3.99288 4.13788 7.02193 1.88556 8.78652 3.80432C10.0593 5.18828 12.3699 4.40917 12.5447 2.5371C12.7871 -0.0584183 16.5616 -0.10016 16.8613 2.48936C17.0776 4.35711 19.4048 5.08493 20.6467 3.67317C22.3684 1.71585 25.4465 3.90063 24.1669 6.17179C23.244 7.80992 24.699 9.76667 26.5335 9.35446C29.0769 8.78296 30.2829 12.3598 27.9128 13.4451C26.2033 14.2279 26.2302 16.6661 27.9567 17.4109C30.3502 18.4435 29.2236 22.0461 26.6681 21.531C24.825 21.1595 23.4136 23.1479 24.3725 24.7652C25.702 27.0076 22.673 29.2599 20.9084 27.3411C19.6356 25.9572 17.325 26.7363 17.1502 28.6083C16.9078 31.2039 13.1333 31.2456 12.8336 28.6561C12.6174 26.7883 10.2901 26.0605 9.04825 27.4723C7.32652 29.4296 4.24841 27.2448 5.52797 24.9736C6.45089 23.3355 4.9959 21.3788 3.16142 21.791C0.618024 22.3625 -0.588037 18.7857 1.78211 17.7004C3.49164 16.9176 3.46467 14.4793 1.73825 13.7345C-0.655314 12.7019 0.471352 9.0993 3.02676 9.61441C4.86991 9.98595 6.28128 7.9975 5.32236 6.38018Z" fill="#FC6B24"/>
</svg>
